<mxfile host="app.diagrams.net" modified="2023-04-27T18:57:30.701Z" agent="Mozilla/5.0 (Windows NT 10.0; Win64; x64) AppleWebKit/537.36 (KHTML, like Gecko) Chrome/112.0.0.0 Safari/537.36" version="21.2.3" etag="8MklS6HR5CbCiVJvLIgk" type="github">
  <diagram name="페이지-1" id="udc6guZA9obLyIBmcTTS">
    <mxGraphModel>
      <root>
        <mxCell id="0" />
        <mxCell id="1" parent="0" />
      </root>
    </mxGraphModel>
  </diagram>
</mxfile>
